<svg width="24" height="24" viewBox="0 0 24 24" fill="none" xmlns="http://www.w3.org/2000/svg">
<path d="M12.1482 16.4656C12.1482 13.8515 14.2749 11.7248 16.889 11.7248C17.4165 11.7248 17.9234 11.8127 18.3976 11.9723L18.7921 7.23804H3.81128L4.98445 21.3156C5.10987 22.8208 6.39132 24 7.90187 24H14.7016C16.2121 24 17.4936 22.8208 17.619 21.3156L17.633 21.1475C17.3905 21.1858 17.1421 21.2064 16.889 21.2064C14.275 21.2064 12.1482 19.0797 12.1482 16.4656Z" fill="black"/>
<path d="M16.889 12.8254C14.8818 12.8254 13.2488 14.4584 13.2488 16.4656C13.2488 18.4728 14.8818 20.1059 16.889 20.1059C18.8962 20.1059 20.5293 18.4728 20.5293 16.4656C20.5293 14.4584 18.8962 12.8254 16.889 12.8254ZM18.675 17.4733C18.8898 17.6882 18.8898 18.0366 18.675 18.2516C18.5675 18.359 18.4266 18.4127 18.2858 18.4127C18.145 18.4127 18.0041 18.359 17.8966 18.2516L16.889 17.2439L15.8813 18.2516C15.7739 18.359 15.633 18.4127 15.4922 18.4127C15.3514 18.4127 15.2105 18.359 15.103 18.2516C14.8881 18.0366 14.8881 17.6882 15.103 17.4733L16.1107 16.4656L15.103 15.4579C14.8881 15.243 14.8881 14.8946 15.103 14.6797C15.318 14.4649 15.6663 14.4649 15.8813 14.6797L16.8889 15.6874L17.8966 14.6797C18.1116 14.4649 18.46 14.4649 18.675 14.6797C18.8898 14.8946 18.8898 15.243 18.675 15.4579L17.6673 16.4656L18.675 17.4733Z" fill="black"/>
<path d="M9.05821 2.10925C9.05821 1.55305 9.51073 1.10053 10.0669 1.10053H12.5361C13.0924 1.10053 13.5449 1.55305 13.5449 2.10925V2.79669H14.6454V2.10925C14.6455 0.946263 13.6993 0 12.5362 0H10.067C8.90403 0 7.95776 0.946263 7.95776 2.10925V2.79669H9.05821V2.10925Z" fill="black"/>
<path d="M19.1324 5.14287C19.1324 4.456 18.5736 3.89722 17.8867 3.89722H4.7166C4.02974 3.89722 3.47095 4.456 3.47095 5.14287V6.13762H19.1324V5.14287Z" fill="black"/>
</svg>
