<svg width="20" height="24" viewBox="0 0 20 24" fill="none" xmlns="http://www.w3.org/2000/svg">
<path d="M17.0286 1.83743H14.0386L13.6182 0.472348C13.5332 0.193663 13.2734 0 12.9805 0H7.01952C6.72666 0 6.46687 0.188939 6.38185 0.472348L5.96146 1.83743H2.97149C1.87565 1.83743 0.98291 2.73017 0.98291 3.82602V22.0114C0.98291 23.1073 1.87565 24 2.97149 24H17.0286C18.1244 24 19.0172 23.1073 19.0172 22.0114V3.82602C19.0172 2.73017 18.1244 1.83743 17.0286 1.83743ZM7.51076 1.33202H12.4846L13.2073 3.67487H6.79279L7.51076 1.33202ZM17.6804 22.0067C17.6804 22.3657 17.3876 22.6585 17.0286 22.6585H2.97149C2.61251 22.6585 2.31965 22.3657 2.31965 22.0067V3.82602C2.31965 3.46703 2.61251 3.17418 2.97149 3.17418H5.55052L5.24821 4.14722C5.18681 4.3456 5.07817 5.00689 5.89061 5.00689H14.1142C14.1189 5.00689 14.1189 5.00689 14.1189 5.00689C14.9172 5.00689 14.7613 4.14249 14.7235 4.05747L14.4496 3.16945H17.0286C17.3876 3.16945 17.6804 3.46231 17.6804 3.8213V22.0067Z" fill="black"/>
</svg>
