<svg width="24" height="24" viewBox="0 0 24 24" fill="none" xmlns="http://www.w3.org/2000/svg">
<g clip-path="url(#clip0_1072_1119)">
<path d="M4.55176 16.5517C4.55176 20.6653 7.88649 24 12.0001 24C16.1136 24 19.4484 20.6653 19.4484 16.5517C19.4484 12.4138 17.3794 9.10339 18.7675 6.20685C18.7675 6.20685 16.5518 6.62066 15.3104 9.93097C15.3104 9.93097 11.1725 5.79303 12.9013 -6.10352e-05C12.9013 -6.10352e-05 8.68974 1.6551 9.13018 7.03442C9.5079 11.6472 8.68974 12.4138 8.68974 12.4138C8.68974 8.68963 5.7781 7.03442 5.7781 7.03442C6.62073 11.5862 4.55176 12.8276 4.55176 16.5517Z" fill="#FFB446"/>
<path d="M17.3764 18.3157C17.3764 21.4138 14.9842 24.0586 11.8867 23.9988C8.97162 23.9427 6.80276 21.7247 7.03456 18.8275C7.13801 17.5344 8.12074 15.4396 9.7242 13.3189L10.7932 13.9655C10.7586 11.3448 12 7.86206 12 7.86206C12.8155 11.5316 17.3764 12.4827 17.3764 18.3157Z" fill="#FFDC64"/>
<path d="M9.93109 15.7241C9.51728 18.2069 8.6897 19.1108 8.6897 20.6896C8.6897 22.3448 10.1718 24 12.0001 24C13.8415 24 15.3155 22.4955 15.3104 20.654C15.2965 15.7083 12.4139 13.2414 12.4139 13.2414C12.8277 15.7242 11.5863 16.9655 11.5863 16.9655C11.0692 16.1899 9.93109 15.7241 9.93109 15.7241Z" fill="white"/>
</g>
<defs>
<clipPath id="clip0_1072_1119">
<rect width="24" height="24" fill="white"/>
</clipPath>
</defs>
</svg>
