<svg width="24" height="24" viewBox="0 0 24 24" fill="none" xmlns="http://www.w3.org/2000/svg">
<g clip-path="url(#clip0_1072_1158)">
<path d="M23.1163 2.26622C22.5751 1.99565 21.9269 2.05406 21.4427 2.41741C19.5738 3.81956 17.7658 3.24805 14.9707 2.19942C12.2314 1.17187 8.82242 -0.10682 5.45788 2.41741C5.05562 2.71922 4.81885 3.19284 4.81885 3.69578V13.2138C4.81885 13.8192 5.16094 14.3727 5.70247 14.6434C6.24401 14.9141 6.89207 14.8555 7.37616 14.4922C9.24497 13.09 11.0531 13.6616 13.8481 14.7102C15.4073 15.295 17.1834 15.9613 19.0449 15.9613C20.4537 15.9613 21.9115 15.5797 23.3609 14.4922C23.7632 14.1904 24 13.7168 24 13.2138V3.69578C24 3.09039 23.6579 2.53695 23.1163 2.26622Z" fill="black"/>
<path d="M1.59817 0.624817C0.7155 0.624817 0 1.34032 0 2.22298V21.777C0 22.6596 0.7155 23.3751 1.59817 23.3751C2.48084 23.3751 3.19633 22.6596 3.19633 21.777V2.22298C3.19633 1.34032 2.48084 0.624817 1.59817 0.624817Z" fill="black"/>
</g>
<defs>
<clipPath id="clip0_1072_1158">
<rect width="24" height="24" fill="white"/>
</clipPath>
</defs>
</svg>
