<svg width="24" height="16" viewBox="0 0 24 16" fill="none" xmlns="http://www.w3.org/2000/svg">
<path d="M7.46992 2C7.35751 2.00016 7.24657 2.02559 7.14531 2.0744C7.04405 2.12321 6.95506 2.19416 6.88492 2.282L2.30992 8H8.99992C9.19883 8 9.38959 8.07902 9.53025 8.21967C9.6709 8.36032 9.74992 8.55109 9.74992 8.75C9.74992 9.34674 9.98697 9.91903 10.4089 10.341C10.8309 10.7629 11.4032 11 11.9999 11C12.5967 11 13.169 10.7629 13.5909 10.341C14.0129 9.91903 14.2499 9.34674 14.2499 8.75C14.2499 8.55109 14.3289 8.36032 14.4696 8.21967C14.6102 8.07902 14.801 8 14.9999 8H21.6899L17.1149 2.282C17.0448 2.19416 16.9558 2.12321 16.8545 2.0744C16.7533 2.02559 16.6423 2.00016 16.5299 2H7.46992ZM5.71492 1.3445C5.9255 1.08125 6.19254 0.868692 6.49631 0.72252C6.80008 0.576347 7.13281 0.500301 7.46992 0.5H16.5299C16.867 0.500301 17.1998 0.576347 17.5035 0.72252C17.8073 0.868692 18.0743 1.08125 18.2849 1.3445L23.8349 8.282C23.8975 8.36016 23.9439 8.45006 23.9712 8.54642C23.9985 8.64277 24.0062 8.74361 23.9939 8.843L23.4089 13.529C23.3409 14.0733 23.0764 14.5741 22.665 14.937C22.2537 15.3 21.724 15.5002 21.1754 15.5H2.82442C2.27585 15.5002 1.7461 15.3 1.33479 14.937C0.923479 14.5741 0.65894 14.0733 0.590917 13.529L0.00591728 8.843C-0.00637711 8.74361 0.00135791 8.64277 0.028666 8.54642C0.0559741 8.45006 0.102302 8.36016 0.164917 8.282L5.71492 1.3445V1.3445Z" fill="black"/>
</svg>
