<svg width="22" height="24" viewBox="0 0 22 24" fill="none" xmlns="http://www.w3.org/2000/svg">
<path d="M17.5788 7.1823H16.5251C17.0347 5.76954 17.5303 3.69385 16.8634 2.06599C16.4702 1.10607 15.7225 0.423396 14.7012 0.0922925C14.5126 0.0308839 14.3166 0 14.119 0C12.79 0 11.5873 1.29748 9.82978 4.62827C9.04009 6.12614 7.90349 7.38735 7.10302 8.06751C6.7633 8.35624 6.49181 8.65072 6.27167 8.94052C5.66477 8.03842 4.63483 7.44409 3.46842 7.44409C1.60641 7.44409 0.0913086 8.95919 0.0913086 10.8212V20.6229C0.0913086 22.4853 1.60641 24 3.46842 24C4.69157 24 5.76173 23.3439 6.35427 22.3675C7.14863 23.3471 8.36029 23.9752 9.71702 23.9752H17.9849C21.399 23.9752 21.9086 21.7717 21.9086 20.4584V11.5129C21.909 9.12511 19.9665 7.1823 17.5788 7.1823ZM4.69085 20.6229C4.69085 21.2969 4.14248 21.8453 3.46878 21.8453C2.79472 21.8453 2.24636 21.2969 2.24636 20.6229V10.8212C2.24636 10.1471 2.79472 9.59878 3.46878 9.59878C4.14248 9.59878 4.69085 10.1471 4.69085 10.8212V20.6229ZM19.7543 20.4584C19.7543 21.256 19.6272 21.8205 17.9853 21.8205H9.71738C8.51794 21.8205 7.54186 20.8448 7.54186 19.6454V11.5129L7.54474 11.4787L7.53719 11.4155C7.53504 11.3811 7.49913 10.5587 8.49819 9.70975C9.45199 8.89886 10.8033 7.40243 11.7356 5.63343C13.2195 2.82156 13.9276 2.27463 14.1198 2.17121C14.4929 2.31054 14.726 2.53284 14.8692 2.88261C15.3336 4.01598 14.7504 6.19509 13.9345 7.76191L13.1146 9.33663H17.5784C18.7782 9.33663 19.7543 10.3127 19.7543 11.5125V20.4584Z" fill="black"/>
</svg>
