<svg width="24" height="24" viewBox="0 0 24 24" fill="none" xmlns="http://www.w3.org/2000/svg">
<path d="M23.9637 9.24367C23.8767 8.97587 23.6452 8.78067 23.3666 8.74023L15.9708 7.66509L12.6635 0.963609C12.5388 0.711099 12.2817 0.551208 12.0002 0.551208C11.7186 0.551208 11.4614 0.711099 11.3367 0.963609L8.02946 7.66509L0.633475 8.74023C0.354727 8.78077 0.123227 8.97597 0.0362294 9.24367C-0.0507682 9.51147 0.0217298 9.80541 0.223442 10.002L5.57518 15.2185L4.31194 22.5839C4.26439 22.8615 4.37842 23.142 4.60617 23.3074C4.83392 23.4729 5.13595 23.4948 5.3852 23.3637L12.0002 19.8864L18.6151 23.3637C18.7233 23.4206 18.8415 23.4486 18.9592 23.4486C18.9599 23.4486 18.9606 23.4486 18.9613 23.4486C18.9613 23.4486 18.9613 23.4486 18.9614 23.4486C19.3699 23.4486 19.7011 23.1174 19.7011 22.7089C19.7011 22.6468 19.6934 22.5866 19.6791 22.529L18.4252 15.2183L23.7766 10.0019C23.9782 9.80551 24.0508 9.51147 23.9637 9.24367ZM17.1139 14.4305C16.9395 14.6004 16.8599 14.8454 16.9011 15.0853L17.9769 21.3568L12.3445 18.3959C12.129 18.2825 11.8716 18.2825 11.6561 18.3959L6.02368 21.3568L7.09941 15.0853C7.14064 14.8454 7.06104 14.6005 6.88665 14.4305L2.32973 9.98877L8.62739 9.07333C8.86836 9.03831 9.07668 8.887 9.18439 8.66862L12.0005 2.96258L14.8166 8.66862C14.9243 8.8869 15.1326 9.03831 15.3735 9.07333L21.6708 9.98877L17.1139 14.4305Z" fill="black"/>
</svg>
