<svg width="24" height="24" viewBox="0 0 24 24" fill="none" xmlns="http://www.w3.org/2000/svg">
<path d="M7.51206 9.51501H5.00806V10.5166H7.51206V9.51501Z" fill="black"/>
<path d="M11.5182 9.51501H8.51343V10.5166H11.5182V9.51501Z" fill="black"/>
<path d="M15.0238 9.51501H12.5198V10.5166H15.0238V9.51501Z" fill="black"/>
<path d="M17.4321 16.724C19.0417 14.9461 20.0317 12.5974 20.0317 10.0159C20.0317 4.49301 15.5385 0 10.0159 0C4.49327 0 0 4.49301 0 10.0159C0 15.5387 4.49327 20.0317 10.0159 20.0317C12.5974 20.0317 14.946 19.0417 16.724 17.4321L23.2918 24L24 23.2918L17.4321 16.724ZM10.0159 19.0302C5.04527 19.0302 1.00157 14.9862 1.00157 10.0159C1.00157 5.04553 5.04527 1.00157 10.0159 1.00157C14.9865 1.00157 19.0302 5.04553 19.0302 10.0159C19.0302 14.9862 14.9865 19.0302 10.0159 19.0302Z" fill="black"/>
</svg>
