<svg width="320" height="81" viewBox="0 0 320 81" fill="none" xmlns="http://www.w3.org/2000/svg">
<g clip-path="url(#clip0_1005_3314)">
<path d="M97.0158 0H50.8263H49.2526H3.06316C1.41789 0 0 1.25053 0 2.89684V59.8358V60.0337V65.3105V65.64C0 67.2853 1.41789 68.6684 3.06316 68.6684H40.0589C40.0158 69.6116 39.7211 73.6716 37.7905 75.64C36.2695 77.1916 34.1558 78.6442 34.9811 79.3905C35.1811 79.8495 36.1295 80.1147 38.2863 80.1147C43.0453 80.1147 48.1979 80.1147 50.0842 80.1147C50.5611 80.1147 50.8284 80.1147 50.8284 80.1147C52.7137 80.1147 57.8684 80.1147 62.6253 80.1147C65.0821 80.1147 65.9411 79.7126 65.9495 79.1116H65.8653V78.9137H65.7789C65.6695 78.1021 64.0295 76.9063 62.7895 75.6453C60.859 73.6768 60.5653 69.6168 60.5221 68.6737H97.0211C98.6674 68.6737 100 67.2916 100 65.6453V65.3147V60.039V59.84V2.89895C99.9968 1.25053 98.6632 0 97.0158 0ZM49.9979 65.7853C48.9232 65.7853 48.0537 64.9179 48.0537 63.8421C48.0537 62.7663 48.9232 61.8968 49.9979 61.8968C51.0716 61.8968 51.9421 62.7663 51.9421 63.8421C51.9432 64.9179 51.0716 65.7853 49.9979 65.7853ZM95.7811 55.6221H4.21684V4.01684H95.78V55.6221H95.7811Z" fill="#303133"/>
<path d="M42.6969 36.5326L30.8442 31.34V31.2747L42.6969 26.0832V22.6211L27.0232 29.9032V32.7116V32.7126L42.6969 39.9937V36.5326Z" fill="#303133"/>
<path d="M48.4136 41.299L55.402 17.6253H52.1041L45.1157 41.299H45.1168H48.4136Z" fill="#303133"/>
<path d="M72.9726 29.8053L57.2979 22.6211V26.0832L69.4136 31.2747V31.34L57.2979 36.5326V39.9937L72.9726 32.8095V29.8053Z" fill="#303133"/>
<path d="M132.06 29.8929C135.565 29.8929 138.427 30.9783 140.646 33.1491C142.865 35.3198 144.023 38.1901 144.12 41.7598C144.12 45.2008 142.994 48.0228 140.743 50.2258C138.492 52.4287 135.597 53.5623 132.06 53.6266C128.522 53.6266 125.644 52.5091 123.425 50.274C121.206 48.0389 120.064 45.2008 120 41.7598C120 38.2865 121.126 35.4485 123.377 33.2455C125.628 31.0426 128.522 29.9251 132.06 29.8929V29.8929ZM124.052 41.7598C124.052 44.2361 124.8 46.238 126.295 47.7656C127.791 49.2931 129.712 50.0891 132.06 50.1534C134.407 50.1534 136.321 49.3735 137.8 47.8138C139.28 46.2541 140.035 44.2361 140.068 41.7598C140.068 39.3156 139.32 37.3057 137.824 35.7299C136.329 34.154 134.391 33.3661 132.012 33.3661C129.696 33.3661 127.799 34.146 126.319 35.7057C124.84 37.2655 124.084 39.2835 124.052 41.7598V41.7598ZM161.727 29.8929C165.297 29.8929 168.159 31.0185 170.314 33.2697C172.468 35.5208 173.562 38.3509 173.594 41.7598C173.594 45.1365 172.5 47.9424 170.314 50.1775C168.127 52.4126 165.457 53.5623 162.306 53.6266C160.376 53.6266 158.632 53.2086 157.072 52.3724C155.512 51.5363 154.362 50.4268 153.623 49.0439H153.526V64.0463H149.764V30.4718H153.526V33.7521H153.623C155.842 31.1793 158.543 29.8929 161.727 29.8929V29.8929ZM153.526 41.7598C153.526 44.2361 154.274 46.238 155.769 47.7656C157.265 49.2931 159.186 50.0891 161.534 50.1534C163.882 50.1534 165.795 49.3735 167.274 47.8138C168.754 46.2541 169.51 44.2361 169.542 41.7598C169.542 39.3156 168.794 37.3057 167.299 35.7299C165.803 34.154 163.866 33.3661 161.486 33.3661C159.17 33.3661 157.273 34.146 155.794 35.7057C154.314 37.2655 153.558 39.2835 153.526 41.7598V41.7598ZM189.706 29.8929C193.05 29.8929 195.663 30.9461 197.545 33.0526C199.426 35.159 200.383 38.1418 200.415 42.001V42.9175H182.18C182.373 45.0079 183.161 46.7284 184.544 48.0791C185.927 49.4298 187.615 50.1212 189.609 50.1534C192.664 50.1534 195.044 49.0117 196.749 46.7284L199.595 48.9474C198.405 50.4911 197.006 51.6569 195.398 52.4448C193.79 53.2327 191.86 53.6266 189.609 53.6266C186.168 53.6266 183.402 52.5091 181.312 50.274C179.222 48.0389 178.16 45.2008 178.128 41.7598C178.128 38.3509 179.198 35.5369 181.336 33.3179C183.475 31.0989 186.265 29.9572 189.706 29.8929V29.8929ZM196.363 39.7337C196.266 37.772 195.631 36.2203 194.457 35.0786C193.283 33.937 191.635 33.3661 189.513 33.3661C187.583 33.3661 185.959 33.9129 184.641 35.0063C183.322 36.0997 182.502 37.6755 182.18 39.7337H196.363ZM217.347 29.8929C220.177 29.8929 222.315 30.713 223.763 32.3531C225.21 33.9932 225.933 36.1801 225.933 38.9137V53.0478H222.171V39.3478C222.171 37.6112 221.769 36.1881 220.965 35.0786C220.161 33.9691 218.842 33.3983 217.009 33.3661C214.694 33.3661 212.949 34.1299 211.775 35.6575C210.601 37.1851 210.014 39.2996 210.014 42.001V53.0478H206.252V35.4887C206.252 35.3279 206.187 33.6556 206.059 30.4718H209.629C209.693 32.7229 209.725 33.9611 209.725 34.1862H209.822C210.433 32.8998 211.421 31.8627 212.788 31.0748C214.155 30.2869 215.675 29.8929 217.347 29.8929V29.8929ZM242.962 16C244.216 16 245.197 16.193 245.904 16.5789L245.374 19.9556C244.473 19.634 243.621 19.4732 242.817 19.4732C241.241 19.4732 240.172 19.9315 239.609 20.848C239.046 21.7646 238.765 23.2841 238.765 25.4067V30.4718H244.264V33.6556H238.765V53.0478H235.002V33.6556H230.082V30.4718H235.002V25.3584C235.002 19.1195 237.656 16 242.962 16V16ZM252.369 16.5789V53.0478H248.606V16.5789H252.369ZM270.603 29.8929C274.108 29.8929 276.971 30.9783 279.19 33.1491C281.409 35.3198 282.566 38.1901 282.663 41.7598C282.663 45.2008 281.537 48.0228 279.286 50.2258C277.035 52.4287 274.141 53.5623 270.603 53.6266C267.065 53.6266 264.187 52.5091 261.968 50.274C259.749 48.0389 258.608 45.2008 258.543 41.7598C258.543 38.2865 259.669 35.4485 261.92 33.2455C264.171 31.0426 267.065 29.9251 270.603 29.8929V29.8929ZM262.595 41.7598C262.595 44.2361 263.343 46.238 264.838 47.7656C266.334 49.2931 268.255 50.0891 270.603 50.1534C272.951 50.1534 274.864 49.3735 276.343 47.8138C277.823 46.2541 278.579 44.2361 278.611 41.7598C278.611 39.3156 277.863 37.3057 276.368 35.7299C274.872 34.154 272.935 33.3661 270.555 33.3661C268.239 33.3661 266.342 34.146 264.863 35.7057C263.383 37.2655 262.627 39.2835 262.595 41.7598V41.7598ZM289.754 30.4718L294.916 47.8379H295.012L300.849 30.4718H304.805L310.738 47.8379H310.835L315.948 30.4718H320L312.716 53.0478H309.001L302.586 35.6816H302.489L296.797 53.0478H292.938L285.605 30.4718H289.754V30.4718Z" fill="#303133"/>
</g>
<defs>
<clipPath id="clip0_1005_3314">
<rect width="320" height="80.1148" fill="white"/>
</clipPath>
</defs>
</svg>
