<svg width="474" height="80" viewBox="0 0 474 80" fill="none" xmlns="http://www.w3.org/2000/svg">
<path d="M134.3 26.4C125.2 26.4 117.9 33.8 117.9 42.3C117.9 52 124.7 58.1 134.3 58.1C144 58.1 150.7 51.4 150.7 41.7C150.7 33.2 143.3 26.4 134.3 26.4ZM134.3 51.2C129.2 51.2 125.3 47 125.3 41.7C125.3 37.2 129.5 33.2 134.3 33.2C139.1 33.2 143.3 37.2 143.3 41.7C143.3 47 139.3 51.2 134.3 51.2Z" fill="#303133"/>
<path d="M169.1 27.4H157.4V57H164.5V46.9H169.4C176.4 46.9 179.8 43.7 179.8 37C179.8 30.8 176 27.4 169.1 27.4ZM166.2 41.4H164.5V33H166.2C169.2 33 172.3 33 172.3 37.3C172.4 41.4 169.1 41.4 166.2 41.4Z" fill="#303133"/>
<path d="M202.2 33.3V27.4H185.7V57H202.2V51.2H192.8V45.1H201.7V39.2H192.8V33.3H202.2Z" fill="#303133"/>
<path d="M217.4 38.5L231.8 57H239.1V27.4H232V46H231.4L231.2 45.9L216.8 27.4H209.5V57H216.6V38.4H217.2L217.4 38.5Z" fill="#303133"/>
<path d="M296.3 27.4L290.6 47.1H290L289.8 46.8L283.9 27.4H278.2L271.8 47.1H271.2L271 46.8L265.8 27.4H258.5L267.3 57H274.7L280.7 39.4H281.3L281.5 39.7L286.8 57H294.2L303.7 27.4H296.3Z" fill="#303133"/>
<path d="M317.2 27.4H310.1V57H317.2V27.4Z" fill="#303133"/>
<path d="M332.1 38.5L346.4 57H353.7V27.4H346.7V46H346L345.8 45.9L331.4 27.4H324.1V57H331.2V38.4H331.9L332.1 38.5Z" fill="#303133"/>
<path d="M372.8 27.4H362V57H372.8C381.1 57 387.9 50.4 387.9 42.2C387.8 34.1 381.1 27.4 372.8 27.4ZM371.2 51.2H369V33.3H371.3C376.8 33.3 380.4 36.8 380.4 42.2C380.4 48.8 375.7 51.2 371.2 51.2Z" fill="#303133"/>
<path d="M408.8 26.4C399.7 26.4 392.4 33.2 392.4 41.7C392.4 51.4 399.2 58.1 408.8 58.1C418.5 58.1 425.2 51.4 425.2 41.7C425.3 33.2 417.9 26.4 408.8 26.4ZM408.8 51.2C403.7 51.2 399.8 47 399.8 41.7C399.8 37.2 404 33.2 408.8 33.2C413.6 33.2 417.8 37.2 417.8 41.7C417.8 47 413.9 51.2 408.8 51.2Z" fill="#303133"/>
<path d="M466.2 27.4L460.4 47.1H459.8L459.6 46.8L453.7 27.4H448L441.7 47.1H441L440.9 46.8L435.7 27.4H428.3L437.1 57H444.6L450.6 39.4H451.2L451.3 39.7L456.6 57H464L473.5 27.4H466.2Z" fill="#303133"/>
<path d="M86.7002 76.4H90.8002L103.5 4.09998H99.5002L86.7002 76.4Z" fill="#303133"/>
<path d="M42.8 10.5L43.5 10.6L39 0.799988L34.5 10.6L35.2 10.5C37.7 10.2 40.3 10.2 42.8 10.5Z" fill="#303133"/>
<path d="M62.7998 21.5L63.1998 22.1L66.8998 11.9L56.7998 15.7L57.3998 16.1C59.4998 17.7 61.2998 19.5 62.7998 21.5Z" fill="#303133"/>
<path d="M69.2001 35.9C69.5001 38.4 69.5001 41 69.2001 43.5L69.1001 44.2L79.0001 39.6L69.2001 35.1V35.9Z" fill="#303133"/>
<path d="M63.6001 58.2C62.0001 60.2 60.2001 62 58.2001 63.6L57.6001 64L67.8001 67.7L64.0001 57.6L63.6001 58.2Z" fill="#303133"/>
<path d="M36.2 69.9L35.5 69.8L40.1 79.7L44.6 69.9L43.9 70C41.3 70.2 38.7 70.2 36.2 69.9Z" fill="#303133"/>
<path d="M16.2 58.9L15.8 58.3L12 68.5L22.1 64.7L21.5 64.3C19.5 62.7 17.7 60.9 16.2 58.9Z" fill="#303133"/>
<path d="M9.8 44.5C9.5 42 9.5 39.4 9.8 36.9L9.9 36.2L0 40.8L9.8 45.3V44.5Z" fill="#303133"/>
<path d="M15.4002 22.3C17.0002 20.3 18.8002 18.5 20.8002 16.9L21.4002 16.5L11.2002 12.8L15.0002 22.8L15.4002 22.3Z" fill="#303133"/>
<path d="M31.9 11.3L23.9 3.89999L23.5 14.7L24.1 14.3C26.3 13 28.7 12.1 31.1 11.4L31.9 11.3Z" fill="#303133"/>
<path d="M54.5002 14.4L54.1002 3.5L46.2002 10.9L46.9002 11.1C49.3002 11.8 51.7002 12.8 53.9002 14L54.5002 14.4Z" fill="#303133"/>
<path d="M65.3 24.9C66.6 27.1 67.5 29.5 68.2 31.9L68.4 32.6L75.8 24.6L65 24.2L65.3 24.9Z" fill="#303133"/>
<path d="M68.5998 47.6C67.8998 50 66.8998 52.4 65.6998 54.6L65.2998 55.2L76.1998 54.8L68.7998 46.9L68.5998 47.6Z" fill="#303133"/>
<path d="M47.8001 68.9L47.1001 69.1L55.1001 76.5L55.5001 65.7L54.9001 66.1C52.6001 67.3 50.3001 68.3 47.8001 68.9Z" fill="#303133"/>
<path d="M25.1 66.4L24.5 66L24.9 76.9L32.8 69.5L32.1 69.3C29.7 68.6 27.3 67.7 25.1 66.4Z" fill="#303133"/>
<path d="M13.7002 55.6C12.4002 53.4 11.5002 51 10.8002 48.6L10.6002 47.9L3.2002 55.9L14.0002 56.3L13.7002 55.6Z" fill="#303133"/>
<path d="M10.3998 32.8C11.0998 30.4 11.9998 28 13.2998 25.8L13.6998 25.2L2.7998 25.6L10.1998 33.5L10.3998 32.8Z" fill="#303133"/>
</svg>
